<svg xmlns="http://www.w3.org/2000/svg" version="1.1" width="600px" height="600px" viewBox="0 0 200 200" style="overflow:hidden!important;"><g id="svga-group-wrapper"><g id="svga-group-backs-single"></g><g id="svga-group-humanwrap-move" transform="matrix(1,0,0,1,0,0)"><g id="svga-group-humanwrap" transform="matrix(1.1500006000000005,0,0,1.1500006000000005,-15.134119488567407,-17.103822792382687)"><g id="svga-group-hair-back-move" transform="matrix(1,0,0,1,0,0)"><g id="svga-group-hair-back"></g></g><g id="svga-group-humanbody-back"><path id="SvgjsPath53570" d="M77.6 118.3c0 19.3 3.4 44.1-10 51.9-13.4 7.9-31.9 11.3-37.8 22s-4.4 25.3-4.4 25.3h149.3s.7-18.9-5.1-26.4c-8.1-10.4-27.8-15.5-37.7-20.9s-13.4-25.1-13.4-52.4l-40.9.5z" fill="#ffffff" stroke-width="none" opacity="1"></path></g><g id="svga-group-chinshadow-single"></g><g id="svga-group-humanbody-front"><path id="SvgjsPath53571" d="M175.8 218.7H24.4l-.1-1c-.1-.6-1.5-15.1 4.5-26 4.1-7.4 13.5-11.3 23.5-15.5 5-2.1 10.2-4.3 14.8-6.9 10.6-6.2 10.1-23.9 9.6-41-.1-3.5-.2-6.8-.2-10v-1.1l43.2-.4v1.1c0 29.9 4.2 46.7 12.8 51.4 2.9 1.6 6.7 3.2 10.8 4.9 10 4.1 21.3 8.8 27.2 16.3 6.1 7.7 5.4 26.4 5.4 27.1l-.1 1.1zm-149.3-2.2h147.1c0-4.1-.2-18.5-4.9-24.6-5.5-7-16.6-11.6-26.3-15.6-4.1-1.7-8-3.3-11-5-5.1-2.8-8.7-8.9-10.9-18.7-2-8.4-2.9-19.4-3-33.5l-38.6.4c0 2.8.1 5.7.2 8.8.5 17.8 1 36.1-10.7 43-4.7 2.7-9.9 4.9-15 7.1-9.6 4-18.7 7.8-22.4 14.5-5 8.6-4.7 20.1-4.5 23.6z" fill="#000000" stroke-width="none" opacity="1"></path><path id="SvgjsPath53572" d="M93.9 153.8c-.5 1.8-.4 3.4.5 5.2.8 1.6 2.1 2.7 3.9 2.9.4 0 .7-.5.5-.8-1.6-2.2-3.5-4.2-3.7-7.1 0-.7-1-.9-1.2-.2z" fill="#000000" stroke-width="none" opacity="1"></path><path id="SvgjsPath53573" d="M112.5 187.5c8.8.5 18.1-.7 26.6-2.9.7-.2.6-1.4-.2-1.3-8.8 1.1-17.7 2-26.5 3.3-.5.1-.3.9.1.9z" fill="#000000" stroke-width="none" opacity="1"></path><path id="SvgjsPath53574" d="M63.1 182.5c3.8.9 7.6 1.9 11.5 2.8 3.6.8 7.4 2 11.1 2.1.7 0 .8-.9.2-1.2-3.5-1.4-7.5-1.7-11.2-2.5-3.8-.7-7.5-1.3-11.3-2-.5 0-.7.7-.3.8z" fill="#000000" stroke-width="none" opacity="1"></path></g><g id="svga-group-clothes-single"><path id="SvgjsPath53921" d="M75.1 157.9s-1.2.2-3.7 3.2-4.6 5.4-4.6 5.4v2.2s-6.8 4.1-12.2 5.4-23.2 10.7-23.2 10.7-6.1 8.5-7.1 15.1-.7 18.3-.7 18.3h153s-.5-14.6-1.7-19.5-5.1-12.7-5.1-12.7-16.1-8.8-22.2-11c-6.1-2.2-15.6-5.9-15.6-5.9v-1.9s-2.9-3.4-5.1-5.6c-2.2-2.2-1.7-3.4-3.4-3.9 0 0 0 5.9-1 9.8s-9.8 9-12.7 10c-2.9 1-3.9 0-4.9 2.9-1 2.9-2.9 7.3-2.9 7.3s-4.2-4.9-6.8-6.8-6.1-3.7-10.5-3.2c-4.4.4-8.1-15.7-9.6-19.8z" fill="#ffffff" stroke-width="none" opacity="1"></path><path id="SvgjsPath53922" d="M175.9 198.4c-1.2-4.9-5-12.6-5.2-12.9-.1-.2-.2-.3-.4-.4-.7-.4-16.2-8.9-22.3-11-5.1-1.8-12.7-4.7-14.9-5.6v-1.3c0-.2-.1-.5-.2-.6-.1-.1-3-3.5-5.2-5.7-.9-.9-1.3-1.6-1.6-2.2-.5-.8-.9-1.6-2.2-2-.3-.1-.6 0-.9.2s-.4.5-.4.8c0 .1 0 5.8-.9 9.5-.7 2.8-6.6 6.8-10.3 8.6-.1 0-.2.1-.2.1-.6.3-1.1.5-1.5.6-.8.3-1.4.4-2 .5-1.7.3-2.7.6-3.5 3.1-.6 1.8-1.6 4.3-2.3 5.8-1.4-1.6-4-4.4-6-5.8-2.4-1.7-6.1-3.9-11.2-3.4-2.8.3-6.1-11.2-7.4-15.6-.4-1.4-.8-2.7-1.1-3.5-.2-.5-.7-.8-1.1-.6-.4.1-1.8.5-4.2 3.5-2.4 2.9-4.6 5.3-4.6 5.3-.2.2-.3.4-.3.7v1.6c-1.6.9-7.1 4-11.4 5-5.4 1.2-22.7 10.4-23.4 10.8l-.3.3c-.2.4-6.2 8.8-7.2 15.6-1 6.6-.8 18-.7 18.5 0 .5.5 1 1 1h153c.3 0 .5-.1.7-.3.2-.2.3-.5.3-.7-.4-.8-.9-15-2.1-19.9zm-.4 16.4c-.6.8-1.2 1.5-1.8 2.3h-2.2c1.4-1.4 2.7-2.8 4-4.2-.1.7 0 1.3 0 1.9zm-6.5-28.1c.7 1.4 3.9 8 4.9 12.2.7 2.8 1.1 8.9 1.4 13.5-1.6 1.6-3.2 3.1-4.8 4.8h-3.4c2.1-1.9 4-4.2 5.9-6.3.2-.2-.1-.5-.3-.3-2.1 2.2-4.6 4.2-6.6 6.6h-2.6c2.3-2.6 4.3-5.2 7-7.4.2-.2-.1-.4-.3-.3-2.6 2.2-5.4 4.8-7.3 7.7h-3.3l.1-.1c.1-.1 0-.2-.1-.2 1.5-.9 3.1-3.1 4.4-4.6 1.6-1.8 3.1-3.5 4.7-5.3.1-.2-.1-.4-.2-.2-3.1 3.4-6.2 6.7-9.2 10.1-.1-.7-.1-1.7-.2-2.9 3.2-3.5 6.2-7.2 9.3-10.8.1-.2-.1-.4-.2-.2-3 3.4-6.1 6.8-9.1 10.4-.1-1.2-.1-2.4-.2-3.8 2.2-2.9 4.5-5.6 7-8.2.1-.1-.1-.3-.2-.2-2.5 2.4-4.8 4.9-6.9 7.6v-4.6c2.1-2.7 4.1-5.3 6.5-7.8.1-.1-.1-.3-.2-.2-2.2 2.1-4.5 4.4-6.3 7 0-.9.1-1.9.2-2.7 1.5-1.9 3-3.7 4.7-5.4.1-.1-.1-.3-.2-.2-1.5 1.4-3.1 3-4.4 4.6.2-1.1.4-2.1.7-3.1.6-.8 1.1-1.5 1.6-2.3.1-.1-.1-.3-.2-.2-.4.4-.7.9-1.1 1.4 1.3-4.4 3.4-8.4 5.3-10.6 1.8 1 3.1 1.7 3.6 2zm-45.6-19.1c.6-2.4.8-5.6.9-7.7.3.6.8 1.4 1.8 2.3 1.8 1.8 4.1 4.4 4.8 5.3v1.6c-.2 1.6.5 6 1.4 9.4.3 1 .8 2.6 1.5 4.4.9 2.6 2.5 7.2 2.6 8.9-1.1-.4-1.9-1-3.8-2.5-1.1-.9-2.7-2.1-4.9-3.7-3.9-2.8-5.9-4.8-7.6-6.3-1-.9-1.8-1.7-2.7-2.4-.7-.6-1.4-.9-2.1-1.1 3.6-2.3 7.4-5.4 8.1-8.2zm-8 14.6c0-1.5-.5-3.2-.7-4.7.4.2.9.4 1.4.8.1 1.1 0 2.3.2 3.4-.3.2-.6.4-.9.5zm1.1-3.6c.3.2.5.4.8.7v.1c.1.4.1.9.2 1.3 0 .1.2.1.2 0 0-.4 0-.7-.1-1.1l.9.9c-.6.4-1.3.8-1.9 1.1.2-1 0-2-.1-3zm-2.1-1.2c.2 1.6.2 3.4.6 5-.4.2-.8.4-1.2.5 0-1.9-.3-3.8-.5-5.7.3.1.6.1 1.1.2zm-4.3.9c.5-.1 1.1-.4 1.8-.8.2-.1.5-.2 1-.3.2 1.9.2 3.9.6 5.8-.3.1-.7.2-1 .3-.2-1.8-.8-3.6-1.2-5.3 0-.2-.3-.1-.3.1.3 1.7.5 3.7 1.1 5.4-.6.2-1.3.4-1.9.6-.2-.7-.4-1.4-.5-2.1 0-.1.1-.2.1-.4 0-.4-.2-.7-.4-1-.2-.6-.3-1.3-.4-2 .2 0 .7-.1 1.1-.3zm-2.4 6.3c-.2-.6-.4-1.3-.6-1.9.3.3.7.5 1.1.5.4 0 .8-.2 1.1-.5.2.5.3 1.1.5 1.6-.6 0-1.4.2-2.1.3zm.1-5.7c.2 0 .5-.1.8-.1.1.5.1 1 .2 1.5-.2-.1-.4-.1-.6-.1-.7 0-1.2.4-1.4 1.1-.1-.6-.2-1.2-.3-1.9.3-.3.7-.4 1.3-.5zm-1.6.9c.1 1.7.4 3.3 1.1 4.8-.5.1-1.1.1-1.6.2-.1-.7-.3-1.4-.6-2.1.3-.7.5-1.4.8-2.1.1-.3.2-.6.3-.8zm-.9 5c-.3 0-.7 0-1.1.1l.6-1.5c.2.5.3 1 .5 1.4zm-10.5-3c.1 1.2.1 2.6.5 3.8.1.2.3.1.3 0 .1-1-.1-2.2-.3-3.3.2.2.4.3.6.5.1 1 .2 2.1.5 3 0 .1.2.1.2 0 .1-.8-.1-1.7-.2-2.6.9.9 1.9 1.8 2.7 2.7-1.6.1-3.2 0-4.8-.1 0-1.6-.4-3.2-.7-4.8.3.2.6.4 1 .6 0 .1.1.2.2.2zm-1.7 3.9c-.1-.8-.4-1.6-.6-2.4-.2-1-.4-2.1-.5-3.1 0-.2-.3-.2-.3 0 .1 1.8.2 3.9 1.1 5.4-.7-.1-1.3-.2-2-.3-.5-2.1-.9-4.1-.9-6.2 1.1.4 2.1.9 3.2 1.5v.1c.2 1.6.3 3.4.7 4.9-.1.1-.4.1-.7.1zm-4.2-.7c-.4-2.1-.9-4.2-1.2-6.4.7.1 1.3.2 2 .4 0 2.1.2 4.3.9 6.3-.6 0-1.2-.2-1.7-.3zm-1.7-6.4c.1 2.1.4 4.3 1.2 6.3-.5-.1-1-.2-1.5-.4-.4-2-.9-4-1.3-6 .6.1 1.1.1 1.6.1zm-2.1 0h.2c.2 2 .5 4 1.2 5.8-.5-.1-.9-.2-1.4-.4-.2-.8-.5-1.5-.7-2.3-.2-.7-.3-1.4-.4-2.2.4-.3.8-.7 1.1-.9zm-1.5 1.3c.2 1.4.4 2.8.9 4-.5-.1-.9-.3-1.4-.5-.3-.7-.7-1.5-1.1-2.2.6-.4 1.1-.9 1.6-1.3zm-1.9 1.7c.2.5.4 1.1.7 1.6-.6-.2-1.2-.4-1.8-.7.4-.3.7-.6 1.1-.9zm-15.1.8c0-4.3 1.2-13.5 1.2-13.6V166.9c.7-.7 2.5-2.8 4.4-5.1 1-1.2 1.8-1.9 2.3-2.3.2.6.4 1.4.7 2.2 2.2 7.5 4.5 14.4 7.4 16.4-2.2 2-6.7 5.9-9 8.2-2.5 2.5-6.8 5.2-8.9 6.3.1-.8.4-2.1.7-3.1.6-2.4 1.2-5.1 1.2-7.1zM36 186.9c-.9-.7-1.8-1.3-2.8-2 .5-.2 1.1-.6 1.8-.9l-.2.2c.2.3.7 1.3 1.2 2.7zm-6.8 3.3c3.1 2.1 6.2 4.4 9.5 6.2h.1c.4 1.4.7 2.8 1.1 4.3-3.8-2.9-8-5.4-11.8-8.4.4-.7.8-1.4 1.1-2.1zm1.6-2.7c2.2 1.9 4.5 3.9 7 5.3.3 1 .6 2.1.9 3.2-2.9-2.2-6.1-4.2-9.3-6.2.6-.9 1-1.7 1.4-2.3zm.3-.4c.5-.8.9-1.3 1-1.6.1-.1.3-.2.6-.3 1.2.9 2.4 1.9 3.6 2.7.4 1.1.8 2.4 1.2 3.9-2-1.7-4.3-3.1-6.4-4.7zm-6.5 26.4c2 1.3 3.9 2.7 6.1 3.6.1 0 .2-.1.1-.2-1.8-1.6-4-2.7-6.1-3.9 0-1 0-2.1.1-3.3 3.3 3 7.1 5.8 11.2 7.4.2.1.3-.2.1-.3-3.9-2.4-7.7-4.6-11.3-7.6 0-1.1.1-2.1.1-3.2 4.9 4.1 10 8 15.5 11.1H24.6v-3.6zm16.5 3.6c-5.4-3.9-10.9-7.5-16.2-11.5.1-1.5.2-3 .4-4.3 5.1 3.6 10.2 7.4 15.6 10.4.2.1.4-.2.2-.3-5-3.8-10.5-7.1-15.8-10.5 0-.3.1-.6.1-.9.2-1.1.5-2.2.9-3.3 4.6 3 9.3 6.3 14.2 8.9.2.1.3-.2.2-.3-4.5-3.3-9.4-6.1-14.1-9h-.1c.4-1.2 1-2.4 1.5-3.6 3.7 3.2 7.8 6.5 12.1 8.6.1.3.2.6.2.9 1.5 6.6 1.7 12.9 1.7 14.9h-.9zm2.8 0c0-2-.1-8.5-1.7-15.4-1.7-7.4-4.3-16.3-5.7-18.6 5.6-2.9 14.8-7.5 18.4-8.2 3.8-.9 8.3-3.1 10.7-4.5-.4 3-1 8.7-1 11.9 0 1.8-.6 4.4-1.1 6.6-.8 3.4-1.1 4.8-.3 5.6.2.2.5.3.9.3.2 0 .3 0 .5-.1 2-.7 7.4-4 10.5-7.1 1.3-1.3 3.3-3.1 5.2-4.8.8.4 1.7.8 2.5 1.1.1.1.1.1.1.2.1.1.3.1.3-.1.5.2 1.1.4 1.6.6.1.1.1.1.2 0 .6.2 1.1.3 1.7.5v.1c.1.1.2.1.2 0 .6.1 1.2.3 1.8.4h.1c3.5.7 7.1 1 10.7.7.6.6 1.1 1.2 1.3 1.5-.1.4-.6 1.3-1.8 2.5-2.4 2.2-3.2 3.6-3 6.9.2 2.4 1.1 15.8 1.4 19.8l-53.5.1zm54.2-19.9c-.2-2.5.2-3.4 2.3-5.3 2.1-1.9 2.5-3.4 2.6-4 .2-.4.6-1.4 1.1-2.6 2.1 0 4.1-.2 6-.6 0 0 0 .1.1.1.1.1.3 0 .2-.1v-.1c.2 0 .3-.1.5-.1-1.1 5-5.6 7.9-5.7 13.4-.2 6.2 1.2 13 2.2 19.2h-7.8c-.4-3.8-1.4-17.5-1.5-19.9zm9.7 19.9c-.6-6.1-2-12.3-2.1-18.4-.1-6 4.8-8.9 5.6-14.4.3-.1.7-.2 1-.3.1.1.2.1.2-.1.9-.3 1.7-.6 2.6-1v.1c0 .1.2.1.2 0v-.2c1.2-.6 2.4-1.3 3.6-2.1 1.6 1.5 3.7 3.6 7.6 6.4 2.2 1.6 3.7 2.8 4.8 3.7 2.2 1.8 3.2 2.6 5.1 3h.4c.4 0 .8-.2 1.1-.5 1-1.1.3-3.8-2.3-11.2-.6-1.7-1.2-3.3-1.4-4.3-.7-2.8-1.2-5.6-1.3-7.4 2.9 1.1 9.6 3.6 14.3 5.3 3.7 1.3 11.2 5.2 16.4 7.9-2.4 3.1-5.4 9.1-6.5 15.5-.5 3.2-.5 8.1-.3 12.1-.1.2-.3.4-.4.6s.2.4.3.2c0-.1.1-.1.1-.2.1 2.1.2 3.8.3 5l-49.3.3zm66.5 0c.4-.6.8-1.1 1.2-1.7 0 .7.1 1.2.1 1.7h-1.3zm-73.2-22.8c.8 0 1.5.7 1.5 1.5s-.7 1.5-1.5 1.5-1.5-.7-1.5-1.5.7-1.5 1.5-1.5zm.6 15.4c.8 0 1.5.7 1.5 1.5s-.7 1.5-1.5 1.5-1.5-.7-1.5-1.5.6-1.5 1.5-1.5z" fill="#000000" stroke-width="none" opacity="1"></path></g><g id="svga-group-head" transform="matrix(1,0,0,1,0,0)"><g id="svga-group-ears-left-move" transform="matrix(1,0,0,1,0,0)"><g id="svga-group-ears-left"><path id="SvgjsPath53476" d="M58.9 77.8s-2.5-2.4-5.4-3.5c-2.9-1.1-6.1.7-7.1 3.7-1 2.9 1.3 15.1 5 19.5s6.2 4.8 8.7 2.5c2.6-2.4 7-10.8-1.2-22.2z" fill="#ffffff" stroke-width="none" opacity="1"></path><path id="SvgjsPath53477" d="M56.8 102.3c-1.9-.1-3.8-1.5-6.1-4.2-3.9-4.7-6.3-17.1-5.2-20.5.6-1.8 1.9-3.3 3.6-4.1 1.5-.7 3.2-.8 4.8-.2 3.1 1.2 5.6 3.6 5.7 3.7l.1.1c8.7 12.2 3.5 21.2 1.1 23.5-1.2 1.1-2.4 1.6-3.7 1.6-.1.1-.2.1-.3.1zm-3.6-27.1c-1.3-.5-2.5-.2-3.2.1-1.2.6-2.1 1.6-2.6 2.9-.8 2.5 1.3 14.3 4.9 18.5 1.9 2.3 3.4 3.4 4.7 3.5.8.1 1.6-.3 2.5-1.1 2.1-1.9 6.5-9.8-1.3-20.7-.4-.3-2.6-2.2-5-3.2z" fill="#000000" stroke-width="none" opacity="1"></path><path id="SvgjsPath53478" d="M50.2 77.4c3.3.6 5.4 6.1 6 9.8.1.1.1.2.2.3.4.6-.4 1.2-.8.6-.5-.8-1-1.6-1.8-1.9-1.4-.5-2.1 1.1-1.8 2.6.4 1.9 1.6 3 2.6 4.4.1.1 0 .3-.1.2-1.7-1-4.3-4.8-3.1-7.2.9-1.7 2.3-1.4 3.4-.4-.8-2.1-1.4-4.3-3-5.9-.5-.5-1.5-1.4-2.2-1.3-1.3.2-1.3 2.1-1.3 3.4-.1 1.7.1 3.4.4 5 0 .2-.2.2-.3.1-.6-2.4-2-10.4 1.8-9.7z" fill="#000000" stroke-width="none" opacity="1"></path></g></g><g id="svga-group-ears-right-move" transform="matrix(1,0,0,1,0,0)"><g id="svga-group-ears-right"><path id="SvgjsPath53479" d="M141.1 77.8s2.5-2.4 5.4-3.5c2.9-1.1 6.1.7 7.1 3.7 1 2.9-1.3 15.1-5 19.5s-6.2 4.8-8.7 2.5c-2.6-2.4-7-10.8 1.2-22.2z" fill="#ffffff" stroke-width="none" opacity="1"></path><path id="SvgjsPath53480" d="M142.9 102.3c-1.3 0-2.5-.5-3.7-1.6-2.5-2.2-7.6-11.3 1.1-23.5l.1-.1c.1-.1 2.7-2.5 5.7-3.7 1.5-.6 3.2-.5 4.8.2 1.7.8 3 2.3 3.6 4.1 1.1 3.3-1.3 15.8-5.2 20.5-2.3 2.7-4.2 4.1-6.1 4.2-.1-.1-.2-.1-.3-.1zm-1.1-23.9c-7.8 10.9-3.4 18.8-1.3 20.7.9.8 1.7 1.2 2.5 1.1 1.3-.1 2.8-1.2 4.7-3.5 3.5-4.2 5.7-16.1 4.9-18.5-.4-1.3-1.4-2.4-2.6-2.9-.7-.3-1.9-.6-3.2-.1-2.4 1-4.6 2.9-5 3.2z" fill="#000000" stroke-width="none" opacity="1"></path><path id="SvgjsPath53481" d="M149.8 77.4c-3.3.6-5.4 6.1-6 9.8-.1.1-.1.2-.2.3-.4.6.4 1.2.8.6.5-.8 1-1.6 1.8-1.9 1.4-.5 2.1 1.1 1.8 2.6-.4 1.9-1.6 3-2.6 4.4-.1.1 0 .3.1.2 1.7-1 4.3-4.8 3.1-7.2-.9-1.7-2.3-1.4-3.4-.4.8-2.1 1.4-4.3 3-5.9.5-.5 1.5-1.4 2.2-1.3 1.3.2 1.3 2.1 1.3 3.4.1 1.7-.1 3.4-.4 5 0 .2.2.2.3.1.6-2.4 2-10.4-1.8-9.7z" fill="#000000" stroke-width="none" opacity="1"></path></g></g><g id="svga-group-faceshape-wrap"><g id="svga-group-faceshape-single"><path id="SvgjsPath53554" d="M142.4 53.6c-2.3-11.4-15.1-28.8-42.4-28.8-27.3 0-36.4 13.4-40.5 23.3-2.5 6.2-3.2 15.2-3.4 19.7 0 0 .5 31 2.3 35.4 1.8 4.4 21.2 33.1 24.3 36.2s29 3.5 32.5 1.8c3.5-1.8 24.2-31.3 25.6-35.3 1.3-4 3-38.1 3-38.1 0-3.2-.3-8.9-1.4-14.2z" fill="#ffffff" stroke-width="none" opacity="1"></path><path id="SvgjsPath53555" d="M103.7 143.4c-1.7 0-3.4 0-5-.1-5.4-.2-14.7-.9-16.8-3-3.1-3.1-22.6-31.8-24.5-36.6-1.8-4.5-2.3-32.7-2.3-35.9.2-4.8.9-13.8 3.4-20.1 6.6-16.2 20.1-24 41.5-24 12.3 0 23.2 3.6 31.3 10.4 6.3 5.2 10.9 12.5 12.2 19.3 1.1 5.5 1.3 11.4 1.4 14.4-.2 3.5-1.7 34.4-3.1 38.4-1.3 3.8-21.9 33.9-26.1 36-1.6.9-6.7 1.2-12 1.2zM57.3 67.9c.1 8.6.8 31.5 2.2 35 1.8 4.6 21.2 33 24 35.8 2.5 2.5 27.9 3.2 31.2 1.6 3.1-1.6 23.8-31 25-34.7 1-3.1 2.5-28.3 2.9-37.8 0-3-.3-8.7-1.4-14-1.3-6.4-5.6-13.1-11.5-18-7.7-6.5-18-9.9-29.9-9.9-20.3 0-33.2 7.4-39.4 22.6-2.2 6-2.9 14.7-3.1 19.4z" fill="#000000" stroke-width="none" opacity="1"></path></g></g><g id="svga-group-mouth-single-move" transform="matrix(1,0,0,1,0,0)"><g id="svga-group-mouth-single"><path id="SvgjsPath53802" d="M112.98 118.4c-.02 0-.53-.02-.95-.22-3.72-1.8-8.31-3.34-11.63-.05-3.07-4.14-8.05-.51-11.8.92-.36.14-.75.02-1.08.1-.3.08-.3.42.09.54.02 0 .66.18 1.14.32.65 1.68 1.46 3.61 3.19 4.41 1.08.5 2.21.38 3.35.16 1.96-.38 3.8-.88 5.81-.97 1.86-.09 3.67.08 5.51.38 1.11.18 2.24.41 3.32-.03 2.02-.82 2.22-3.09 2.18-5.01.29.01.48-.02.76-.08.38-.13.42-.41.11-.47zm-12.98 0c.07.1.51.31.64.17 2.95-3.04 7.04-1.88 10.46-.29-3.8-.64-7.85-.75-10.7 2.22-.97-1.15-2.3-1.7-3.83-1.79-2.57-.15-5.31.44-7.89.82 3.59-1.39 8.47-5.02 11.32-1.13zm10.3 4.54c-1.32 1.1-2.64.71-4.23.46a25.02 25.02 0 0 0-5.67-.24c-1.79.14-3.48.6-5.24.95-3.32.65-4.82-1.45-5.9-4.16 1.46-.19 2.92-.38 4.38-.56 2.33-.28 4.95-.54 6.54 1.58.05.07.12.1.18.1.05.01.1 0 .15-.03.01 0 .02-.01.02-.01.01-.01.03 0 .04-.02 2.89-3.2 7.15-2.87 11.03-2.16.06 1.59 0 3-1.3 4.09z" fill="#000000" stroke-width="none" opacity="1"></path></g></g><g id="svga-group-eyes-left-move" transform="matrix(1,0,0,1,0,0)"><g id="svga-group-eyes-left"><g id="svga-group-eyesback-left"></g><g id="svga-group-eyesiriswrapper-left"><g id="svga-group-eyesiriscontrol-left" transform="matrix(1,0,0,1,0,0)"><g id="svga-group-eyesiris-left"><path id="SvgjsPath53589" d="M79.2 82.9c2.4 0 4.3 1.9 4.3 4.2s-1.9 4.2-4.3 4.2-4.3-1.9-4.3-4.2 1.9-4.2 4.3-4.2z" fill="#000000" stroke-width="none" opacity="1"></path><path id="SvgjsPath53590" d="M75.5 84.9c-.4 1-.5 2.2-.2 3.1.3 1 .9 1.9 1.8 2.3s1.9.6 2.8.3c.9-.2 1.8-.8 2.2-1.6.5-.8.7-1.8.5-2.8-.1-.5-.3-.9-.6-1.3s-.7-.7-1.1-1-.9-.4-1.4-.6c-.5-.1-1-.1-1.5-.1-.1 0-.3 0-.4.1s-.3.1-.4.1c-.2.1-.5.2-.7.3-.3.4-.7.8-1 1.2.2-.5.6-.9 1-1.3.2-.2.5-.3.7-.5.1-.1.3-.1.4-.2.1-.1.3-.1.4-.1.6-.1 1.2-.2 1.8-.1.6.1 1.1.2 1.7.5s1.1.6 1.4 1.1c.4.5.7 1.1.8 1.7.3 1.2.1 2.5-.6 3.6-.3.5-.8 1-1.3 1.4-.5.3-1.1.6-1.7.7-1.2.2-2.5.1-3.5-.6-.5-.3-.9-.8-1.3-1.3-.3-.5-.5-1.1-.6-1.7-.1-1.1.1-2.3.8-3.2z" fill="#ffffff" stroke-width="none" opacity="1"></path><path id="SvgjsPath53591" d="M79.2 92c-.9 0-1.8-.3-2.6-.8-.5-.3-1-.8-1.3-1.3-.3-.5-.5-1.1-.6-1.7-.2-1.2.1-2.4.7-3.4l.6-.9.2-.2v.1c.1-.1.2-.2.3-.2.2-.2.5-.4.8-.5.1-.1.3-.1.4-.2.1-.1.3-.1.4-.1.6-.2 1.2-.2 1.8-.1.6.1 1.2.3 1.7.5.6.3 1.1.7 1.5 1.2.4.5.7 1.1.8 1.7.3 1.2.1 2.6-.6 3.7-.3.6-.8 1.1-1.3 1.4s-1.1.6-1.8.8c-.3-.1-.7 0-1 0zM75 86.5c-.1.5-.1 1.1 0 1.6.1.6.3 1.1.6 1.6s.7.9 1.2 1.2c1 .6 2.2.8 3.4.6.6-.1 1.2-.4 1.6-.7s.9-.8 1.2-1.3c.6-1 .8-2.3.5-3.5-.1-.6-.4-1.2-.8-1.6-.4-.4-.8-.8-1.4-1.1-.5-.2-1-.4-1.6-.5-.5-.1-1.1 0-1.7.1-.1 0-.3.1-.4.1-.1.1-.3.1-.4.2-.2.1-.3.2-.5.3.2-.1.4-.2.6-.2.1 0 .3-.1.4-.1.1 0 .3-.1.4-.1.6-.1 1.1-.1 1.6.1.6.2 1.1.4 1.5.6.4.3.8.6 1.1 1 .3.4.5.9.6 1.4.2 1 0 2-.5 2.9-.5.9-1.4 1.5-2.4 1.7-1 .2-2.1.1-3-.4S75.4 89 75.1 88c-.1-.4-.1-.9-.1-1.5zm.6-1.5c-.4 1-.4 2-.1 3 .3 1 .9 1.8 1.7 2.2.8.4 1.8.6 2.7.3.9-.2 1.7-.8 2.2-1.6.5-.8.7-1.8.5-2.7-.1-.5-.3-.9-.5-1.2-.3-.4-.6-.7-1-.9-.4-.2-.8-.4-1.4-.6-.4-.1-.9-.1-1.5-.1-.1 0-.2 0-.4.1-.1 0-.2.1-.4.1-.2.1-.4.2-.7.3-.4.3-.7.7-1.1 1.1z" fill="#000000" stroke-width="none" opacity="1"></path><path id="SvgjsPath53592" d="M79.3 84.8c-1.3-.3-2.9 1.3-2.6 2.6.1.3.4.6.7.6.4 0 .6-.1.8-.4.1-.1.1-.2.2-.3 0 0 .1-.1.1-.2V87l.1-.1.1-.1s.2-.1.1-.1c.2-.1.4-.1.6-.2.8-.3.7-1.5-.1-1.7z" fill="#ffffff" stroke-width="none" opacity="1"></path></g></g></g><g id="svga-group-eyesfront-left"><path id="SvgjsPath53520" d="M79 72.1c-8.2 0-14.8 6.6-14.8 14.8s6.6 14.8 14.8 14.8 14.8-6.6 14.8-14.8c0-8.1-6.6-14.8-14.8-14.8zm3.1 20.1c-5.3.7-12.6-1-14.2-1.7s-2.8-2.6 1.3-4.1 7.8-1.6 13.7-.4 7.9 3.7 7.9 3.7c-.3.4-3.4 1.9-8.7 2.5z" fill="#ffffff" stroke-width="none" opacity="1"></path><path id="SvgjsPath53521" d="M66.3 90.1c-.4-.5-.4-1.2 0-1.9 1.3-2.2 7.1-4.6 14.1-3.3 6 1.1 9.1 3 10.5 4.2.1-.1.1-.3.1-.4.1-.9-.8-2.1-2.3-3.1-3.5-2.4-9.7-3.8-14.9-1.2-.2.1-.5 0-.6-.2s0-.5.2-.6c5.5-2.8 12.1-1.3 15.8 1.3 1.9 1.3 2.9 2.7 2.7 4 0 .3-.1.6-.3.9l.2.2c.2.2.1.5-.1.6-.2.2-.5.1-.6-.1l-.1-.1c-.2.2-.5.3-.8.5-3.3 1.4-7.3 1.9-11.1 1.9-6.2 0-11.8-1.4-12.8-2.7zm14-4.3c-6.9-1.2-12.2 1.2-13.2 2.9-.3.5-.1.7-.1.8 1.3 1.7 14.2 4.1 22.7.5.2-.1.4-.2.5-.3-1.2-1-4.1-2.9-9.9-3.9z" fill="#000000" stroke-width="none" opacity="1"></path></g></g></g><g id="svga-group-eyes-right-move" transform="matrix(1,0,0,1,0,0)"><g id="svga-group-eyes-right"><g id="svga-group-eyesback-right"></g><g id="svga-group-eyesiriswrapper-right"><g id="svga-group-eyesiriscontrol-right" transform="matrix(1,0,0,1,0,0)"><g id="svga-group-eyesiris-right"><path id="SvgjsPath53593" d="M121.3 82.9c2.4 0 4.3 1.9 4.3 4.2s-1.9 4.2-4.3 4.2-4.3-1.9-4.3-4.2 2-4.2 4.3-4.2z" fill="#000000" stroke-width="none" opacity="1"></path><path id="SvgjsPath53594" d="M117.6 84.9c-.4 1-.5 2.2-.2 3.1.3 1 .9 1.9 1.8 2.3s1.9.6 2.8.3c.9-.2 1.8-.8 2.2-1.6.5-.8.7-1.8.5-2.8-.1-.5-.3-.9-.6-1.3s-.7-.7-1.1-1-.9-.4-1.4-.6c-.5-.1-1-.1-1.5-.1-.1 0-.3 0-.4.1s-.3.1-.4.1c-.2.1-.5.2-.7.3-.3.4-.7.8-1 1.2.2-.5.6-.9 1-1.3.2-.2.5-.3.7-.5.1-.1.3-.1.4-.2.1-.1.3-.1.4-.1.6-.1 1.2-.2 1.8-.1.6.1 1.1.2 1.7.5s1.1.6 1.4 1.1c.4.5.7 1.1.8 1.7.3 1.2.1 2.5-.6 3.6-.3.5-.8 1-1.3 1.4-.5.3-1.1.6-1.7.7-1.2.2-2.5.1-3.5-.6-.5-.3-.9-.8-1.3-1.3-.3-.5-.5-1.1-.6-1.7 0-1.1.2-2.3.8-3.2z" fill="#ffffff" stroke-width="none" opacity="1"></path><path id="SvgjsPath53595" d="M121.3 92c-.9 0-1.8-.3-2.6-.8-.5-.3-1-.8-1.3-1.3-.3-.5-.5-1.1-.6-1.7-.2-1.2.1-2.4.7-3.4l.6-.9.2-.2v.1c.1-.1.2-.2.3-.2.2-.2.5-.4.8-.5.1-.1.3-.1.4-.2.1-.1.3-.1.4-.1.6-.2 1.2-.2 1.8-.1.6.1 1.2.3 1.7.5.6.3 1.1.7 1.5 1.2.4.5.7 1.1.8 1.7.3 1.2.1 2.6-.6 3.7-.3.6-.8 1.1-1.3 1.4s-1.1.6-1.8.8c-.3-.1-.6 0-1 0zm-4.2-5.5c-.1.5-.1 1.1 0 1.6.1.6.3 1.1.6 1.6s.7.9 1.2 1.2c1 .6 2.2.8 3.4.6.6-.1 1.2-.4 1.6-.7s.9-.8 1.2-1.3c.6-1 .8-2.3.5-3.5-.1-.6-.4-1.2-.8-1.6-.4-.4-.8-.8-1.4-1.1-.5-.2-1-.4-1.6-.5-.5-.1-1.1 0-1.7.1-.1 0-.3.1-.4.1-.1.1-.3.1-.4.2-.2.1-.3.2-.5.3.2-.1.4-.2.6-.2.1 0 .3-.1.4-.1.1 0 .3-.1.4-.1.6-.1 1.1-.1 1.6.1.6.2 1.1.4 1.5.6.4.3.8.6 1.1 1 .3.4.5.9.6 1.4.2 1 0 2-.5 2.9-.5.8-1.3 1.5-2.3 1.7-1 .2-2.1.1-3-.4s-1.6-1.4-1.9-2.4c-.1-.4-.2-.9-.2-1.5zm.6-1.5c-.4 1-.4 2-.1 3 .3 1 .9 1.8 1.7 2.2.8.4 1.8.6 2.7.3.9-.2 1.7-.8 2.2-1.6.5-.8.7-1.8.5-2.7-.1-.5-.3-.9-.5-1.2-.3-.4-.6-.7-1-.9-.4-.2-.8-.4-1.4-.6-.4-.1-.9-.1-1.5-.1-.1 0-.2 0-.4.1-.1 0-.2.1-.4.1-.2.1-.4.2-.7.3l-1.1 1.1z" fill="#000000" stroke-width="none" opacity="1"></path><path id="SvgjsPath53596" d="M121.4 84.8c-1.3-.3-2.9 1.3-2.6 2.6.1.3.4.6.7.6.4 0 .6-.1.8-.4.1-.1.1-.2.2-.3 0 0 .1-.1.1-.2V87l.1-.1.1-.1s.2-.1.1-.1c.2-.1.4-.1.6-.2.8-.3.7-1.5-.1-1.7z" fill="#ffffff" stroke-width="none" opacity="1"></path></g></g></g><g id="svga-group-eyesfront-right"><path id="SvgjsPath53522" d="M121 72.1c-8.2 0-14.8 6.6-14.8 14.8s6.6 14.8 14.8 14.8 14.8-6.6 14.8-14.8c0-8.1-6.6-14.8-14.8-14.8zm11 18.5c-1.6.6-8.9 2.4-14.2 1.7-5.3-.7-8.4-2.2-8.7-2.5 0 0 2-2.4 7.9-3.7 5.9-1.3 9.6-1.2 13.7.4s3 3.4 1.3 4.1z" fill="#ffffff" stroke-width="none" opacity="1"></path><path id="SvgjsPath53525" d="M133.6 88.2c-1.3-2.2-7.1-4.6-14.1-3.3-1.5.3-2.8.6-4 1-.1-.7-.3-1.4-.2-2.1.6-.2 1.2-.3 1.8-.4-.2.6-.2 1.2.1 1.8.1.2.4.1.4-.1-.1-.6-.2-1.1 0-1.7 2.8-.4 5.8-.2 8.6 1.2.2.1.5 0 .6-.2s0-.5-.2-.6c-5.5-2.8-12.1-1.3-15.8 1.3-1.9 1.3-2.9 2.7-2.7 4 0 .3.1.6.3.9l-.2.2c-.2.2-.1.5.1.6.2.2.5.1.6-.1l.1-.1c.2.2.5.3.8.5 3.3 1.4 7.3 1.9 11.1 1.9 6.2 0 11.8-1.4 12.8-2.7.4-.8.4-1.4-.1-2.1zm-18.7-4.4c-.1.7-.1 1.5.2 2.1-.5.2-1 .3-1.4.5 0-.7-.1-1.4-.1-2.1.5-.2.9-.3 1.3-.5zm-3.2 1.6c.5-.3 1-.6 1.5-.8-.1.7-.1 1.4.2 2-.7.3-1.3.5-1.8.8 0-.3-.1-.7-.1-1 0-.4.1-.7.2-1zm-1.5 1.1c.2-.2.5-.5.8-.7-.1.6-.1 1.3.4 1.7-.3.2-.6.4-.9.5-.1-.2-.2-.4-.2-.7-.1-.2-.1-.5-.1-.8zm-.9 1.4c0-.2 0-.3.1-.5l.3-.3c0 .5.1.9.3 1.3-.2.2-.5.3-.6.5 0-.4-.1-.7-.1-1zm23.6 1.6c-1.3 1.7-14.2 4.1-22.7.5-.2-.1-.4-.2-.5-.3 1.3-1 4.2-2.9 10-3.9 6.9-1.2 12.2 1.2 13.2 2.9.3.5.1.7 0 .8zm-13.1-6.3v.8c0 .1.2.1.2 0v-.8c0-.1-.2-.1-.2 0z" fill="#000000" stroke-width="none" opacity="1"></path></g></g></g><g id="svga-group-facehighlight-single"></g><g id="svga-group-eyebrows-left-move" transform="matrix(1,0,0,1,0,0)"><g id="svga-group-eyebrows-left-rotate" transform="matrix(1,1.7453292144864463e-9,-1.7453292144864463e-9,1,1.2713867647562438e-7,-1.352019296518847e-7)"><g id="svga-group-eyebrows-left"><path id="SvgjsPath53434" d="M71.56 71.57c4.09-.17 10.75 3.28 13.7 4.98 2.94 1.7 6.34 1.7 5.89-1.02s-11.66-6.91-15.17-7.47c-3.51-.57-6.79 1.13-12.23 6.79 0 0 5.09-3.17 7.81-3.28z" fill="#ffffff" stroke-width="none" opacity="1"></path><path id="SvgjsPath53435" d="M63.35 75.18c.16.2.45.25.67.11.05-.03 5.01-3.1 7.56-3.21 3.37-.13 9.14 2.45 13.42 4.92 1.41.81 2.85 1.24 4.03 1.24.72 0 1.34-.16 1.8-.48.69-.48.98-1.3.82-2.31-.53-3.17-12.15-7.34-15.59-7.89-3.79-.61-7.23 1.27-12.68 6.94-.18.19-.19.48-.03.68zm7.74-4.08c-.56.02-1.8.07-2.68.11.59-.47 1.16-.88 1.7-1.22l2.22 1.08c-.27-.02-.54-.02-.8-.01-.13.01-.28.02-.44.04zm3.44.3a.24.24 0 0 0-.08-.06l-3.62-1.76c.47-.26.93-.46 1.38-.63l3.17 2.66c-.28-.08-.57-.14-.85-.21zm2.55.75-4.11-3.45c.58-.15 1.15-.22 1.72-.23l4.06 4.3c-.55-.21-1.11-.42-1.67-.62zm.16-3.29c0 .01 0 .01.01.02 1.26 1.57 2.93 3.66 4 5-.3-.14-.61-.28-.92-.42l-4.61-4.89c.06.01.12.01.18.01.38.05.84.15 1.34.28zm5.43 5.71c-.69-.88-3.1-3.88-4.32-5.41.62.18 1.28.4 1.96.64l3.66 5.45c-.39-.21-.83-.44-1.3-.68zm2.61 1.41L81.4 70.2c.57.21 1.15.44 1.73.68.01.01 0 .03.01.04l3.36 5.68c-.33-.14-.66-.3-.99-.49-.07-.04-.15-.09-.23-.13zm2.23.98-3.34-5.64c.63.28 1.25.56 1.83.85v.01l2.49 4.99c-.3-.05-.63-.11-.98-.21zm1.77.23-2.25-4.5c.62.33 1.19.66 1.69.98l1.05 3.45c-.16.04-.32.06-.49.07zm1.1-.38-.75-2.47c.58.47.94.91 1.01 1.28.11.69-.09 1.03-.26 1.19zm-23.63-4.18c.27-.25.53-.47.79-.69.22-.01.52-.02.84-.04-.56.22-1.11.47-1.63.73z" fill="#000000" stroke-width="none" opacity="1"></path></g></g></g><g id="svga-group-eyebrows-right-move" transform="matrix(1,0,0,1,0,0)"><g id="svga-group-eyebrows-right-rotate" transform="matrix(1,1.7453292144864463e-9,-1.7453292144864463e-9,1,1.2713867647562438e-7,-2.138603178991616e-7)"><g id="svga-group-eyebrows-right"><path id="SvgjsPath53436" d="M128.44 71.57c-4.09-.17-10.75 3.28-13.7 4.98-2.94 1.7-6.34 1.7-5.89-1.02s11.66-6.91 15.17-7.47c3.51-.57 6.79 1.13 12.23 6.79 0 0-5.09-3.17-7.81-3.28z" fill="#ffffff" stroke-width="none" opacity="1"></path><path id="SvgjsPath53437" d="M136.62 74.5c-5.45-5.67-8.88-7.55-12.68-6.94-3.44.55-15.06 4.72-15.59 7.89-.17 1.01.12 1.83.82 2.31.46.32 1.08.48 1.8.48 1.18 0 2.62-.43 4.03-1.24 4.28-2.47 10.05-5.05 13.42-4.91 2.55.11 7.51 3.17 7.56 3.21.22.14.51.09.67-.11a.53.53 0 0 0-.03-.69zm-8.16-3.44c-.26-.01-.52 0-.8.01l2.22-1.08c.54.34 1.11.76 1.7 1.22-.88-.04-2.12-.09-2.68-.11-.15-.02-.3-.03-.44-.04zm-3.84.55 3.17-2.66c.45.16.91.37 1.38.63l-3.62 1.76c-.03.02-.06.04-.08.06-.28.07-.57.13-.85.21zm-3.37 1.17 4.06-4.3c.57 0 1.14.08 1.72.23l-4.11 3.45c-.56.19-1.12.4-1.67.62zm2.86-4.21c.06-.01.12-.01.18-.01l-4.61 4.89c-.31.14-.62.28-.92.42 1.07-1.34 2.74-3.43 4-5 0-.01 0-.01.01-.02.49-.12.95-.22 1.34-.28zm-8.08 6.68 3.66-5.45c.69-.24 1.35-.45 1.96-.64-1.22 1.52-3.63 4.53-4.32 5.41-.47.24-.91.47-1.3.68zm-1.54.86c-.33.19-.66.34-.99.49l3.36-5.68c.01-.01 0-.02.01-.04.58-.24 1.16-.47 1.73-.68l-3.88 5.78c-.08.04-.16.09-.23.13zm-2.99 1.05 2.49-4.99v-.01c.59-.29 1.2-.57 1.83-.85l-3.34 5.64c-.34.11-.67.17-.98.21zm-1.26-.04 1.05-3.45c.49-.32 1.07-.65 1.69-.98l-2.25 4.5c-.18-.01-.34-.03-.49-.07zm-.88-1.5c.06-.38.43-.81 1.01-1.28l-.75 2.47c-.17-.16-.37-.5-.26-1.19zm22.26-3.72c.33.01.62.03.84.04.26.22.52.44.79.69-.52-.26-1.07-.51-1.63-.73z" fill="#000000" stroke-width="none" opacity="1"></path></g></g></g><g id="svga-group-beardwrap"><g id="svga-group-beard-single-move" transform="matrix(1,0,0,1,0,0)"><g id="svga-group-beard-single"></g></g></g><g id="svga-group-mustache-single-move" transform="matrix(1,0,0,1,0,0)"><g id="svga-group-mustache-single"></g></g><g id="svga-group-nose-single-move" transform="matrix(1,0,0,1,0,0)"><g id="svga-group-nose-single"><path id="SvgjsPath53852" d="M96.13 77.79s-5.71 19.9-6.24 24.21c-.29 2.31 5.38 2.5 5.38 2.5s-.29 6.15.48 7.11 2.5.48 3.84-.86 3.65-6.05 3.65-6.05 2.02.19 3.55-.58 2.31-2.59.86-5c-1.44-2.4-6.24-20.65-7.69-21.52s-2.19-.87-3.83.19z" fill="#ffffff" stroke-width="none" opacity="1"></path><path id="SvgjsPath53853" d="M102.52 104.6c-.71 1.64-1.4 3.33-2.54 4.72-.67.81-1.89 1.99-3.06 1.81-1.16-.18-.82-1.68-.84-2.56-.09-4.17-.11-8.35-.05-12.52.12-8.22.54-16.43 1.24-24.62.07-.87-1.29-.87-1.36 0-1.13 13.3-1.5 26.66-1.11 40 .01.22.12.49.34.59 4.5 2.05 7.15-3.45 8.57-6.74.33-.79-.84-1.48-1.19-.68z" fill="#000000" stroke-width="none" opacity="1"></path><path id="SvgjsPath53854" d="M105.15 103.66c.41-.94 1.45-1.47 2.35-.75.68.54 1.65-.41.96-.96-1.51-1.22-3.68-.81-4.49 1.02-.34.79.83 1.49 1.18.69z" fill="#000000" stroke-width="none" opacity="1"></path><path id="SvgjsPath53855" d="M91.39 103.02c.68-.26 1.37.02 1.68.68.37.8 1.54.1 1.18-.69-.54-1.17-2.01-1.77-3.21-1.31-.82.32-.47 1.63.35 1.32z" fill="#000000" stroke-width="none" opacity="1"></path></g></g><g id="svga-group-hair-front"><path id="SvgjsPath53901" d="M126.1 44.8s-4.2 10.9-22.1 17.7c0 0-1.2-.2 2.3-4 3.5-3.7-9.5 5.6-13.2 6.3-3.7.7 7.4-9.3 7.4-9.3S82.8 67.3 81 66.4c-1.9-.9 7.4-8.4 7.4-8.4S74 68.2 71.9 68.7 80 57.5 80 57.5s-11.2 7.9-13.9 15.8c-2.8 7.9-4.4 7-4.4 3.5s1.9-10 1.9-10-4.2 5.1-3.5 15.6.9 16.3-.7 13.7c-1.6-2.6-4-17.4-4-17.4s1.2 11.9-.7 10.9c-1.9-.9-6-18.6-6-24.4s1.4-15.3 4-19.8c0 0-3.3 6.5-5.6 9.3s2.6-12.3 6.7-17.2 12.6-10.2 12.6-10.2-11.2 5.3-8.8 2.6c2.3-2.8 20.9-18.1 50.4-10.7 0 0-6-3.5-9.3-5.6s10.7.2 14.9 2.8c4.2 2.6 8.1 8.4 8.1 8.4s13.9.7 19.5 3.5-7 .2-11.4.9c0 0 11.2 5.6 15.8 9.5s7.7 10.9 5.6 10.2-6.3-5.8-6.3-5.8 4 7.9 5.6 16.5 2.3 15.8.9 19.8-3.5-12.8-3.5-12.8.5 11.4-1.9 19.5c-2.3 8.1-5.3 11.9-5.8 8.6s2.1-9.5 2.1-14.9S140 68 140 68s.7 8.8-1.2 6.3c-1.9-2.6-4-8.4-6.3-13-2.2-4.7-5.7-4.9-6.4-16.5z" fill="#ffffff" stroke-width="none" opacity="1"></path><path id="SvgjsPath53902" d="M151.5 59.4c-.8-4.3-2.2-8.4-3.4-11.4 1 .9 2 1.6 2.8 1.9.9.3 1.5-.1 1.8-.6 1.1-2-2.8-8.3-6.4-11.3-3.1-2.6-8.8-5.9-12.5-7.8 1.1.1 2.4.2 3.5.2 4.5.4 6 .5 6.3-.8.3-1.1-1-1.8-1.9-2.2-5.2-2.6-16.9-3.4-19.4-3.6-1-1.4-4.4-6-8.2-8.3-2.7-1.6-15.4-5.1-16.7-3.1-.2.2-.6 1.1.8 2 1.1.7 2.6 1.7 4.1 2.5C73.2 12.2 57 29 56.8 29.2c-.8.9-.6 1.6-.3 2 .3.3.6.7 2.5.3-2.1 1.7-4.3 3.6-5.9 5.4-3.4 4-8.2 16.4-7.5 18.4.1.4.5.7.9.8.7.1 1.2-.5 1.4-.7.3-.4.6-.8 1-1.3-.8 4-1.1 8.2-1.1 11.1 0 5.1 4 24 6.6 25.3.5.2 1 .2 1.4-.1.3-.2.5-.5.7-1.1.7 3.2 1.5 6.2 2.2 7.3.5.7.9 1.1 1.5 1.1.1 0 .3 0 .4-.1 1.3-.4 1.6-1.9.7-15.3-.3-1.1-.3-2.2-.3-3.2.3.8.7 1.2 1.4 1.3 1.1.2 2.5-.5 4.7-6.7.8-2.3 2.5-4.7 4.3-6.9-1 1.6-.8 2-.6 2.3.2.3.7.7 1.3.5 1-.2 4.4-2.3 7.9-4.7-.2.4-.3.8-.3 1.1.1.5.3.9.8 1.1 1.2.6 5.3-1.3 12.4-5.7-2 2.4-1.7 3.1-1.5 3.5.2.3.6.9 1.8.7 2-.4 5.9-2.7 9.4-4.8.2-.1.5-.3.7-.4-.6 1-.6 1.6-.5 2 .2.5.6.8.9.9h.5c12.5-4.7 18.5-11.4 21-15.3.8 6.1 2.5 8.4 4.3 10.5.7 1 1.4 1.8 2.1 3.1.9 1.8 1.7 3.7 2.5 5.6 1.3 3.1 2.6 5.9 3.8 7.6.7 1 1.5.9 1.8.8.2-.1.6-.2.9-1 .3 1.7.6 3.5.6 5.2 0 2.6-.6 5.5-1.2 8-.6 2.8-1.1 5.2-.9 7 .2 1.7 1.1 2 1.6 2 2.9.2 5.4-8 6.1-10.5.8-3 1.3-6.3 1.6-9.4.9 3.9 1.7 4 2.2 4 .4 0 1.1-.1 1.5-1.3 1.6-3.6 1.3-10-.6-20.2zm-.6 18.2c-.6-2.4-1.4-7-1.9-11.1-.1-.5-.5-.9-1.1-.9-.5 0-.9.5-.9 1 0 .1.4 11.3-1.8 19.2-1.4 5-3 7.9-3.9 8.8-.2-1.4.3-3.8.9-6.3.6-2.6 1.2-5.6 1.2-8.4 0-5.5-2.3-11.9-2.4-12.2-.1-.4-.5-.7-.9-.7h-.2c-.5.1-.8.6-.8 1.1.1 1.6.2 3.5.1 4.7-.9-1.6-2-3.9-3-6.4-.8-1.9-1.7-3.8-2.6-5.6-.7-1.4-1.5-2.4-2.3-3.4-1.9-2.4-3.7-4.7-4.1-12.7 0-.5-.4-.9-.8-.9-.5-.1-.9.2-1.1.6 0 .1-3.9 9.7-19.4 16.3.3-.4.7-.9 1.3-1.5.5-.5 1.3-1.4.6-2.2-.7-.9-1.4-.5-6 2.2-2.5 1.5-5.7 3.4-7.7 4.2 1.4-1.7 4.4-4.7 7.2-7.2.4-.4.4-.9.1-1.4-.3-.4-.9-.5-1.3-.2-7 4.7-14.8 9.4-17.7 10.6 1.1-1.5 4.1-4.2 6.8-6.4.4-.3.5-1 .2-1.4s-.9-.5-1.4-.2c-5.1 3.6-10.8 7.5-13.9 9.3 1.6-2.1 4.3-5.5 6.9-8.3.3-.4.3-1 0-1.3-.3-.4-.9-.4-1.3-.1-.7.3-11.7 8.1-14.5 16.2-1.1 3.2-1.9 4.6-2.4 5.1-.1-.3-.1-.7-.1-1.3 0-3.3 1.8-9.7 1.8-9.7.1-.5-.1-.9-.5-1.2-.4-.2-.9-.1-1.2.3-.2.2-4.4 5.5-3.7 16.3.2 3.3.6 8.7.5 11.6-1.1-3.3-2.4-10.7-3.2-15.5-.1-.5-.6-.9-1.1-.8s-.9.6-.9 1.1c.3 3.3.5 7.2.3 9.1-1.7-3.8-5-17.4-5-22.6 0-5.6 1.2-13.7 3.3-18.2.3-.6.5-1.1.6-1.1.2-.5.1-1.1-.4-1.3-.5-.3-1.1-.1-1.3.4l-.6 1.2c-.6 1.2-1.7 3.3-2.9 5.1 1.3-4 3.9-10.3 6.3-13 4-4.7 12.2-10 12.3-10 .4-.3.6-.9.3-1.3-.3-.5-.8-.6-1.3-.4-2.1 1-4.5 2-6.2 2.7 5.6-4.9 23.1-15.2 48-8.9.5.1 1-.1 1.2-.6s0-1-.4-1.2c-.1 0-4.2-2.4-7.4-4.4 3.4.4 9.5 1.8 12 3.3 3.9 2.4 7.8 8 7.8 8.1.2.3.5.4.8.4.1 0 11.5.6 17.6 2.7-.6 0-1.2-.1-1.8-.1-2.8-.2-5.9-.5-7.8-.2-.4.1-.8.4-.8.8s.2.9.5 1c.1.1 11.1 5.6 15.6 9.4 3.1 2.6 5.1 6.3 5.7 8.1-1.5-1-3.7-3.5-5-5-.3-.4-.9-.5-1.3-.2s-.6.8-.4 1.3c0 .1 3.9 7.9 5.5 16.2 1.5 8 1.9 13.8 1.3 17.4zm-30.7-37.4c-3.5 4.5-7.9 8-13.1 10.4-.7.3-.1 1.4.6 1.1 5.3-2.4 9.8-6 13.4-10.6.5-.7-.4-1.6-.9-.9zm-5.8-2.3c-4.5 4.5-9.7 7.9-15.5 10.3-.7.3-.4 1.5.3 1.2 6.1-2.5 11.4-6 16.1-10.6.5-.6-.3-1.5-.9-.9zm-14.6 3.2c-6.2 4.2-12.7 8-19.4 11.3-.7.4-.1 1.4.6 1.1 6.8-3.3 13.2-7 19.4-11.3.7-.5.1-1.6-.6-1.1zm-20.6 7.6c-6.1 4-11.3 9-15.5 15-.5.7.6 1.3 1.1.6 4-5.8 9.1-10.7 15-14.5.7-.5.1-1.6-.6-1.1zM64 55.2c-2.5 4-4.6 8.1-6.4 12.5-.3.7.9 1.1 1.2.3 1.7-4.3 3.8-8.3 6.2-12.2.5-.7-.6-1.3-1-.6zm-9.1 7c-1 4.5-1.3 9.1-.9 13.7.1.8 1.3.8 1.3 0-.4-4.5-.1-9 .9-13.4.1-.7-1.1-1-1.3-.3zm50.6-24.7c-.7.4-.1 1.5.6 1.1 3.6-2.1 6.6-5 8.8-8.4.4-.7-.6-1.3-1.1-.6-2.1 3.2-4.9 5.8-8.3 7.9zM86 44.4c6.1-2.8 11.4-6.6 16-11.5.6-.6-.3-1.5-.9-.9-4.5 4.8-9.8 8.6-15.8 11.3-.6.3 0 1.4.7 1.1zm-5.6-6.3c-5.1 3.2-9.9 6.7-14.5 10.7-.6.5.3 1.4.9.9 4.5-3.9 9.2-7.3 14.2-10.5.7-.4.1-1.5-.6-1.1zm-11.2-3c.7-.4.1-1.5-.6-1.1-6.7 4.2-11.4 10.4-13.7 18-.2.8 1 1.1 1.2.3 2.1-7.2 6.7-13.2 13.1-17.2zm3.6-6.5c4-2.6 8.4-4.4 13.1-5.4.8-.2.5-1.4-.3-1.2-4.8 1-9.3 2.9-13.4 5.5-.7.4-.1 1.5.6 1.1zm10.7 2.6c3-1.7 6.3-2.8 9.7-3.3.8-.1.5-1.3-.3-1.2-3.6.5-6.9 1.7-10 3.5-.7.3-.1 1.4.6 1zm16.9-6.7c3.7.1 7.2.8 10.6 2 .8.3 1.1-.9.3-1.2-3.6-1.3-7.2-1.9-11-2.1-.7 0-.7 1.3.1 1.3zm24.8 7.6c-.5 2.8-1.3 5.5-2.4 8.1-.3.7.9 1.1 1.2.3 1.1-2.6 1.9-5.3 2.4-8.1.1-.8-1.1-1.1-1.2-.3zm4.3 4.6c.1-.8-1.2-.8-1.3 0-.3 3.7.1 7.2 1.1 10.8.2.8 1.4.4 1.2-.3-1-3.5-1.3-7-1-10.5zm4.4 17.2c-.3-.7-1.5-.4-1.2.3 1 2.5 2.4 4.9 4.1 7 .5.6 1.4-.3.9-.9-1.6-1.9-2.9-4-3.8-6.4zm2.1-4.6c-1.9-2.6-3-5.5-3.5-8.7-.1-.8-1.3-.5-1.2.3.5 3.3 1.7 6.3 3.6 9 .5.7 1.6.1 1.1-.6zm3.5 5.1c-.4-.7-1.5-.1-1.1.6 1.6 2.5 2.9 5 4.1 7.7.3.7 1.4.1 1.1-.6-1.2-2.7-2.6-5.3-4.1-7.7zm4.4 13.6c.1 2.1.3 4.1.4 6.2 0 .8 1.3.8 1.3 0-.1-2.1-.3-4.1-.4-6.2-.1-.8-1.3-.8-1.3 0zm-2.1-21.4c-1-1.7-1.9-3.5-2.9-5.2-.4-.7-1.5-.1-1.1.6 1 1.7 1.9 3.5 2.9 5.2.4.7 1.5.1 1.1-.6zm2.4 9.7c1.1 2.4 1.8 4.8 2.3 7.4.1.8 1.3.5 1.2-.3-.4-2.7-1.2-5.2-2.4-7.7-.4-.7-1.5-.1-1.1.6z" fill="#000000" stroke-width="none" opacity="1"></path></g><g id="svga-group-glasses-single-move" transform="matrix(1,0,0,1,0,0)"><g id="svga-group-glasses-single"><path id="SvgjsPath53666" d="M81.31 72.09c-4.36-.64-9.29 0-14.37 5.47s-4.65 12.2-2.13 18.11c2.7 6.33 9.56 8.96 14.25 9.06 4.69.1 10.07-2.54 12.8-5.86s4.4-8.8 3.62-13.29c-.78-4.5-4.21-12.03-14.17-13.49z" fill="url(#SvgjsLinearGradient53667)" opacity="1"></path><path id="SvgjsPath53670" d="M118.48 72.09c4.36-.64 9.29 0 14.37 5.47s4.65 12.2 2.13 18.11c-2.7 6.33-9.56 8.96-14.25 9.06-4.69.1-10.07-2.54-12.8-5.86s-4.4-8.8-3.62-13.29c.78-4.5 4.2-12.03 14.17-13.49z" fill="url(#SvgjsLinearGradient53671)" opacity="1"></path><path id="SvgjsPath53674" d="M140.77 84.65c-.05-.3-.34-.15-2.02-.69-1.05-.34-1.74-1.16-2.12-1.72-.65-1.77-1.68-3.52-3.23-5.19-5.8-6.24-11.35-6.25-15.03-5.71-8.09 1.19-12.49 6.45-14.19 11.68-.45.13-1.13.19-1.96-.15-1.54-.62-2.13-.99-4.11-.26-1.45.54-1.99.66-2.5.4-1.71-5.23-6.11-10.49-14.19-11.68-3.68-.54-9.23-.54-15.03 5.71-1.55 1.67-2.58 3.42-3.23 5.19-.38.57-1.08 1.38-2.12 1.72-1.67.54-1.97.39-2.02.69s-.1 4.43-.05 4.77c.05.34 1.03.2 2.07.93.8.57 1.39 1.3 1.92 2.24.32 1.2.73 2.33 1.17 3.37 2.72 6.38 9.64 9.41 14.92 9.52h.27c4.7 0 10.18-2.55 13.13-6.14 2.13-2.58 3.5-6.19 3.86-9.68.36-1 1.07-2.71 1.95-3.41 1.28-1.03 2.16-1.61 3.63.48.7 1 1.24 2.1 1.6 2.98.37 3.48 1.74 7.06 3.86 9.63 2.95 3.59 8.44 6.14 13.13 6.14h.27c5.28-.11 12.2-3.14 14.92-9.52.44-1.04.85-2.17 1.17-3.37.52-.94 1.12-1.66 1.92-2.24 1.03-.74 2.02-.59 2.07-.93.04-.33-.01-4.46-.06-4.76zM91.28 98.39c-2.7 3.28-7.97 5.7-12.21 5.59-4.81-.1-11.12-2.84-13.57-8.61-2.02-4.74-3.32-11.59 1.99-17.31 4.12-4.43 8.08-5.44 11.2-5.44.91 0 1.75.09 2.51.2 10.76 1.58 13.09 10.25 13.54 12.87.71 4.08-.75 9.41-3.46 12.7zm43-3.01c-2.46 5.77-8.76 8.51-13.57 8.61-4.24.11-9.51-2.32-12.21-5.59-2.71-3.29-4.16-8.63-3.46-12.69.46-2.62 2.78-11.29 13.54-12.87.75-.11 1.59-.2 2.51-.2 3.13 0 7.09 1.01 11.2 5.44 5.31 5.7 4.01 12.56 1.99 17.3z" fill="#000000" stroke-width="none" opacity="1"></path></g></g></g></g></g><rect id="svga-credit-rect" width="200" height="15" x="0" y="185" fill="#ecf0f1" opacity="0.5" style="display: none;"></rect><text id="svga-credit-text" font-family="Avenir Next, Roboto, Helvetica, Arial, sans-serif" font-size="10px" text-anchor="start" font-weight="400" size="10px" anchor="start" weight="400" fill="#333333" x="33.298973083496094" y="182.60824728012085" style="display: none;"><tspan id="SvgjsTspan53428" dy="13" x="33.298973083496094">Created on AvatarMaker.com</tspan></text></g><defs id="SvgjsDefs53375"><linearGradient id="SvgjsLinearGradient53667" x1="79.3288" y1="71.8854" x2="79.3288" y2="104.7359" gradientUnits="userSpaceOnUse" class="svga-on-canvas-glasses-gradient-single-0-null"><stop id="SvgjsStop53668" stop-opacity="1" stop-color="#ffffff" offset="0.0708" ></stop><stop id="SvgjsStop53669" stop-opacity="0" stop-color="#ffffff" offset="1" ></stop></linearGradient><linearGradient id="SvgjsLinearGradient53671" x1="34.9103" y1="71.8854" x2="34.9103" y2="104.7359" gradientTransform="matrix(-1 0 0 1 155.3625 0)" gradientUnits="userSpaceOnUse" class="svga-on-canvas-glasses-gradient-single-1-null"><stop id="SvgjsStop53672" stop-opacity="1" stop-color="#ffffff" offset="0.0708" ></stop><stop id="SvgjsStop53673" stop-opacity="0" stop-color="#ffffff" offset="1" ></stop></linearGradient></defs></svg>