<?xml version="1.0" encoding="UTF-8" standalone="no"?>
<svg
   version="1.1"
   width="600px"
   height="600px"
   viewBox="0 0 200 200"
   style="overflow:hidden!important;"
   id="svg820"
   sodipodi:docname="avatar.svg"
   inkscape:export-filename="avatar.png"
   inkscape:export-xdpi="96"
   inkscape:export-ydpi="96"
   inkscape:version="1.2 (dc2aedaf03, 2022-05-15)"
   xmlns:inkscape="http://www.inkscape.org/namespaces/inkscape"
   xmlns:sodipodi="http://sodipodi.sourceforge.net/DTD/sodipodi-0.dtd"
   xmlns="http://www.w3.org/2000/svg"
   xmlns:svg="http://www.w3.org/2000/svg">
  <sodipodi:namedview
     id="namedview822"
     pagecolor="#ffffff"
     bordercolor="#000000"
     borderopacity="0.25"
     inkscape:showpageshadow="2"
     inkscape:pageopacity="0.0"
     inkscape:pagecheckerboard="0"
     inkscape:deskcolor="#d1d1d1"
     showgrid="false"
     inkscape:zoom="1.2916667"
     inkscape:cx="111.87097"
     inkscape:cy="300.77419"
     inkscape:window-width="1920"
     inkscape:window-height="995"
     inkscape:window-x="0"
     inkscape:window-y="0"
     inkscape:window-maximized="1"
     inkscape:current-layer="svg820" />
  <defs
     id="SvgjsDefs33970" />
  <g
     id="svga-group-wrapper">
    <g
       id="svga-group-backs-single">
      <path
         id="SvgjsPath34807"
         d="M0 0h200v200H0V0z"
         fill="#001114"
         stroke-width="none"
         opacity="1"
         stroke="none" />
      <path
         id="SvgjsPath34808"
         d="M0 0v10.1L76.5 100 0 0zm0 34.1V50l76.5 58.3L0 34.1zm0 37.1v13.6l76.5 33.4L0 71.2zM38.3 0H21.1l67.2 108.3L38.3 0zm36.3 0H61l27.2 90L74.6 0zM0 108.3v9.9l76.5 9.9L0 108.3zM0 144v13.6l76.5-22.1L0 144zm0 35.7V200l88.3-64.5L0 179.7zM38.3 200h16.4l26.5-42.4L38.3 200zm85.2-100L200 10.1V0l-76.5 100zM200 50V34.1l-76.5 74.2L200 50zm0 34.8V71.2l-76.5 47L200 84.8zM178.9 0h-17.2l-50 108.3L178.9 0zM139 0h-13.6l-13.6 90L139 0zm61 118.2v-9.9L123.5 128l76.5-9.8zm0 39.4V144l-76.5-8.5 76.5 22.1zm0 42.4v-20.3l-88.3-44.2L200 200zm-54.7 0h16.4l-43-42.4 26.6 42.4zM111.7 0H88.3L100 100 111.7 0zM76.5 200h11.7l6.4-58.5L76.5 200zm35.2 0h11.7l-18.2-58.5 6.5 58.5zm-17 0h10.6l-5.3-42.4-5.3 42.4z"
         fill="#000405"
         stroke-width="none"
         opacity="1"
         stroke="none" />
    </g>
    <g
       id="svga-group-humanwrap-move"
       transform="matrix(1,0,0,1,0,0)">
      <g
         id="svga-group-humanwrap"
         transform="matrix(1,0,0,1,0,0)">
        <g
           id="svga-group-hair-back-move"
           transform="matrix(1,0,0,1,0,0)">
          <g
             id="svga-group-hair-back"
             transform="matrix(1,0,0,1,0,0)" />
        </g>
        <g
           id="svga-group-humanbody-back">
          <path
             id="SvgjsPath34367"
             d="m170 180.3-27.3-6.9-18-9.9-1.5-28.2H76.8l-1.5 28.2-18 9.9-27.3 6.9-9.1 19.7-3 20h164.2l-3-20z"
             fill="#ebaa82"
             stroke-width="none"
             opacity="1"
             stroke="none" />
          <path
             id="SvgjsPath34368"
             d="m76.8 135.3-1.5 28.2-18 9.9-27.3 6.9-9.1 19.7-3 20h14.6v-20l2.7-17.7 23.8-6.4 24.7-8.3 3.5-32.3z"
             fill="#cc7b48"
             stroke-width="none"
             opacity="1"
             stroke="none" />
        </g>
        <g
           id="svga-group-chinshadow-single">
          <path
             id="SvgjsPath34598"
             d="m122.4 140.2 1-1-.2-3.9H76.8l-.5 9.2 13.8 13.8h14.3z"
             fill="#bd6630"
             stroke-width="none"
             opacity="1"
             stroke="none" />
        </g>
        <g
           id="svga-group-humanbody-front">
          <path
             id="SvgjsPath34369"
             d="m92.8 168.3 2 7.9 6.9 4.6s-8.5-3-8.7-3.6c-.2-.6-.2-8.9-.2-8.9z"
             fill="#cc7b48"
             stroke-width="none"
             opacity="1"
             stroke="none" />
        </g>
        <g
           id="svga-group-clothes-single">
          <path
             id="SvgjsPath34817"
             d="m69.5 182.7 18.5 17 12.3 8.5 13.9-8.9 21-19.1V220H70.6z"
             fill="#ededed"
             stroke-width="none"
             opacity="1" />
          <path
             id="SvgjsPath34818"
             d="m80.1 220-4.6-31.8-6-5.5.7 22.9 6.2 14.4z"
             fill="#d8d8d8"
             stroke-width="none"
             opacity="1" />
          <path
             id="SvgjsPath34819"
             d="m75.3 163.5.6-11.1-23.3 15.9 1.3 1.1L26 180.2l-3.1.9-3.6 18.9-3.1 20h62l-6.8-40 3.9-16.5zM183.9 220l-3.1-20-3.7-18.9-3.1-.9-27.8-10.8 1.3-1.1-23.3-15.9.6 11.1 4 16.5-6.8 40h61.9z"
             fill="#dba026"
             stroke-width="none"
             opacity="1"
             stroke="none" />
          <path
             id="SvgjsPath34820"
             d="m45.7 189.1 17.6-16.9 7.3-8.5-9 8.3-9.1-3.7 1.3 1.1L26 180.2l-3.1.9-3.6 18.9-3.2 20h12.3l2.9-32.5 1.4 1.9s4.7 12.7 5.1 13.2c.3.5 3.6 16.9 3.6 16.9L39 201.7l-5.8-13.4-1.9-1.9.2-1.8 26.2-12.8 2.3 1.4-17.6 16.3 18.1 15.1 10 15.3h1.9l-9.8-17.2-16.9-13.6zM71 175.9l.4 4.1 4-16.5.6-10.6-2.2 2.6-2.8 20.4zm75.2-6.5 1.3-1.1-9.1 3.7-9-8.3 7.3 8.5 17.6 16.9-16.9 13.7-9.8 17.2h1.9l10-15.3 18.1-15.1-17.6-16.3 6.2-3.9zm20.5 19-5.8 13.4-2.4 17.8s3.2-16.4 3.6-16.9 5.1-13.2 5.1-13.2l5.6-7.3-6.1 6.2zM129 175.9l-2.7-20.3-2.2-2.6.6 10.6 4 16.5.3-4.2z"
             fill="#cc8e0f"
             stroke-width="none"
             opacity="1"
             stroke="none" />
          <path
             id="SvgjsPath34821"
             d="m149.3 188.7-15.1 13s-6.8 16.2-6.8 16.8 8.5-16 8.5-16l16.6-13.4-21.1-21.7 17.9 21.3zm-10.2-17.8 6-3-16.6-11.3 14.1 11.1-3.5 3.2zm31.1 10.4-5.3 4.9-3.6 10.9 4.9-10 7.2-6.2s-25.8-9.4-26.4-9.4l23.2 9.8zm5.7 2.1L177 200l4.9 17.2-6-33.8zm-105.8-16-3.4 12.1L76.9 219l-7.5-39 .7-12.6zm-8.1 7.3-14.7 14.1 15.5 12.3-12.4-11.5L62 174.7z"
             fill="#eab340"
             stroke-width="none"
             opacity="1"
             stroke="none" />
        </g>
        <g
           id="svga-group-head"
           transform="matrix(1,0,0,1,0,0)">
          <g
             id="svga-group-ears-left-move"
             transform="matrix(1,0,0,1,0,0)">
            <g
               id="svga-group-ears-left"
               transform="matrix(1,0,0,1,0,0)">
              <path
                 id="SvgjsPath34508"
                 d="m66.3 102.2-3-7.2-9.2-8-3.6 12.9 4.7 12.7-.4 5.6 5 2.4 6-11.1z"
                 fill="#ebaa82"
                 stroke-width="none"
                 opacity="1"
                 stroke="none" />
              <path
                 id="SvgjsPath34509"
                 d="m52.5 100 1.9-8.4 3.7 10.6-.8 1 .4 5.9s-3.3-2.1-3.3-2.7.3-6.2.3-6.2l.9-.3-.9-4.5-1.6 6.1.4 3-1-4.5z"
                 fill="#cc7b48"
                 stroke-width="none"
                 opacity="1"
                 stroke="none" />
              <path
                 id="SvgjsPath34510"
                 d="m60.4 111.8-.7-12L54.1 87l9.2 8 3 7.2-.5 7.3-6 11.1-5-2.4 4.8.3z"
                 fill="#dc9164"
                 stroke-width="none"
                 opacity="1"
                 stroke="none" />
            </g>
          </g>
          <g
             id="svga-group-ears-right-move"
             transform="matrix(1,0,0,1,0,0)">
            <g
               id="svga-group-ears-right"
               transform="matrix(1,0,0,1,0,0)">
              <path
                 id="SvgjsPath34511"
                 d="m133.7 102.2 3-7.2 9.2-8 3.6 12.9-4.7 12.7.4 5.6-5 2.4-6-11.1z"
                 fill="#ebaa82"
                 stroke-width="none"
                 opacity="1"
                 stroke="none" />
              <path
                 id="SvgjsPath34512"
                 d="m147.5 100-1.9-8.4-3.7 10.6.8 1-.4 5.9s3.3-2.1 3.3-2.7-.3-6.2-.3-6.2l-.9-.3.9-4.5 1.6 6.1-.4 3 1-4.5z"
                 fill="#cc7b48"
                 stroke-width="none"
                 opacity="1"
                 stroke="none" />
              <path
                 id="SvgjsPath34513"
                 d="m139.6 111.8.7-12 5.6-12.8-9.2 8-3 7.2.5 7.3 6 11.1 5-2.4-4.8.3z"
                 fill="#dc9164"
                 stroke-width="none"
                 opacity="1"
                 stroke="none" />
            </g>
          </g>
          <g
             id="svga-group-faceshape-wrap"
             transform="matrix(1,0,0,1,0,0)">
            <g
               id="svga-group-faceshape-single">
              <path
                 id="SvgjsPath34588"
                 d="M138.1 60c-6.9-11.6-19.7-19.5-19.7-19.5-7.2-1.5-18.4-2.3-18.4-2.3s-11.1.8-18.4 2.3c0 0-12.8 7.9-19.7 19.5 0 0-5.1 14.5-5.3 24.8l1.2 18.7 9.1 23.5 8 7.6 18 18.1h14.2l18-18.1 8-7.6 9.1-23.5 1.2-18.7c-.2-10.3-5.3-24.8-5.3-24.8z"
                 fill="#ebaa82"
                 stroke-width="none"
                 opacity="1"
                 stroke="none" />
              <path
                 id="SvgjsPath34589"
                 d="m93.2 150.3-24.4-24.7-7.7-23.7.3-18 4.3-22.1 17.4-18 16.7-4 18.6.7c-7.2-1.5-18.4-2.3-18.4-2.3s-11.1.8-18.4 2.3c0 0-12.8 7.9-19.7 19.5 0 0-5.1 14.5-5.3 24.8l1.2 18.7 9.1 23.5 8 7.6 18 18.1h14.2l18-18.1 8-7.6-27 23.4H93.2v-.1z"
                 fill="#cc7b48"
                 stroke-width="none"
                 opacity="1"
                 stroke="none" />
            </g>
          </g>
          <g
             id="svga-group-mouth-single-move"
             transform="matrix(1,0,0,1,0,0)">
            <g
               id="svga-group-mouth-single"
               transform="matrix(1,0,0,1,0,0)">
              <path
                 id="SvgjsPath34682"
                 d="m108.34 124.95-5.79-1.49-.84 1.44-1.66.6-1.76-.6-.84-1.44-5.79 1.49s-3.26 5.76-3.26 5.91l11.65-2.91 11.55 2.91c0-.15-3.26-5.91-3.26-5.91z"
                 fill="#E2929B"
                 stroke-width="none"
                 opacity="1"
                 transform="translate(0 2)"
                 stroke="none" />
              <path
                 id="SvgjsPath34683"
                 d="m85.21 129.79 3.66 1.38 11.28-2.37 11.13 2.35 3.07-1.45-3.7.6-10.6-2.8-10.77 2.84-4.07-.55z"
                 fill="#d3737e"
                 stroke-width="none"
                 opacity="1"
                 transform="translate(0 2)"
                 stroke="none" />
              <path
                 id="SvgjsPath34684"
                 d="m91.46 137 3.3 1.7 5.7-1.2 6.4 1.2-6.4-.6-5.9 1.1z"
                 fill="#cc7b48"
                 stroke-width="none"
                 opacity="1"
                 transform="translate(0 2)"
                 stroke="none" />
            </g>
          </g>
          <g
             id="svga-group-eyes-left-move"
             transform="matrix(1,0,0,1,0,0)">
            <g
               id="svga-group-eyes-left"
               transform="matrix(1,0,0,1,0,0)">
              <g
                 id="svga-group-eyesback-left">
                <path
                   id="SvgjsPath34544"
                   d="M91.2 95.7 86 91.1l-9 .1-7 3.8s5.8 4.3 7.2 4.9l8.8-.4 5.2-3.8z"
                   fill="#ffffff"
                   stroke-width="none"
                   opacity="1" />
              </g>
              <g
                 id="svga-group-eyesiriswrapper-left"
                 transform="matrix(1,0,0,1,0,0)">
                <g
                   id="svga-group-eyesiriscontrol-left"
                   transform="matrix(1,0,0,1,0,0)">
                  <g
                     id="svga-group-eyesiris-left"
                     transform="matrix(1,0,0,1,0,0)">
                    <path
                       id="SvgjsPath34602"
                       d="M82.9 89.5h-4L76 92.4v4.1l2.9 2.8h4l2.9-2.8v-4.1z"
                       fill="#3c8d8e"
                       stroke-width="none"
                       opacity="1" />
                    <path
                       id="SvgjsPath34603"
                       d="M86.1 96.5v-2c0-.7 0-1.4-.1-2v-.2c-.5-.5-1-.9-1.5-1.4-.2-.2-.5-.5-.8-.7-.2-.2-.5-.4-.8-.7-.3 0-.7 0-1-.1s-.7 0-1-.1c-.7 0-1.4-.1-2.1-.1h-.1l-.1.1c-.5.5-1 .9-1.5 1.4l-.7.7-.7.7-.1.1v.1l.1 2c0 .7.1 1.4.1 2l.7.7.7.7c.5.5.9 1 1.4 1.5h.1c.7 0 1.4.1 2 .1H83l.1-.1 1.5-1.4.7-.7.7-.7.1-.1v.2zm-1.2.5-.7.7-1.3 1.4H81c-.7 0-1.3 0-2 .1-.5-.4-1-.9-1.4-1.4l-.7-.7-.7-.7c0-.7 0-1.3.1-2l.1-1.9.7-.7.7-.7 1.4-1.4c.6 0 1.3 0 1.9-.1.3 0 .7 0 1-.1.3 0 .7 0 1-.1l.7.8c.2.2.5.5.7.8.4.5.9.9 1.3 1.4 0 .7 0 1.3-.1 1.9v1.9l-.8.8z"
                       fill="#196e6f"
                       stroke-width="none"
                       opacity="1" />
                    <path
                       id="SvgjsPath34604"
                       d="m82.6 93.2.4 1.5-.8 1.4-1.6.4-1.4-.8-.4-1.6.8-1.4 1.6-.4z"
                       fill="#000000"
                       stroke-width="none"
                       opacity="1" />
                    <path
                       id="SvgjsPath34605"
                       d="m80.6 96.7-1.5-.9-.4-1.7.9-1.5 1.7-.4 1.5.9.4 1.7-.9 1.5-1.7.4zm-1.2-1.1 1.3.8 1.4-.4.8-1.3-.4-1.4-1.3-.8-1.4.4-.8 1.3.4 1.4z"
                       fill="#196e6f"
                       stroke-width="none"
                       opacity="1" />
                    <path
                       id="SvgjsPath34606"
                       d="m78.7 90.9.8-.4 1.1 2.4-.8.4-1.1-2.4z"
                       fill="#ffffff"
                       stroke-width="none"
                       opacity="1" />
                    <path
                       id="SvgjsPath34607"
                       d="M81.2 95.5h1v1h-1v-1z"
                       fill="#ffffff"
                       stroke-width="none"
                       opacity="1" />
                  </g>
                </g>
              </g>
              <g
                 id="svga-group-eyesfront-left">
                <path
                   id="SvgjsPath34552"
                   d="M67.1 89.3v11.9l7.9 8.4h11.2l7.9-8.4V89.3l-7.9-8.4H75l-7.9 8.4zm3 5.7 7-3.8 9-.1 5.1 4.6-5.2 3.9-8.8.4c-1.3-.8-7.1-5-7.1-5z"
                   fill="#ebaa82"
                   stroke-width="none"
                   opacity="1"
                   stroke="none" />
                <path
                   id="SvgjsPath34553"
                   d="m91.7 96.1-1.2-.6-4.7-4.1H77l-7.2 4-1 .2 7.9-5 9.6-.1z"
                   fill="#210d34"
                   stroke-width="none"
                   opacity="1"
                   stroke="none" />
                <path
                   id="SvgjsPath34554"
                   d="m90.8 94-4-4.1-9.8-.1-8.1 3.6 8.1-3.1h9.7z"
                   fill="#dc9164"
                   stroke-width="none"
                   opacity="1"
                   stroke="none" />
              </g>
            </g>
          </g>
          <g
             id="svga-group-eyes-right-move"
             transform="matrix(1,0,0,1,0,0)">
            <g
               id="svga-group-eyes-right"
               transform="matrix(1,0,0,1,0,0)">
              <g
                 id="svga-group-eyesback-right">
                <path
                   id="SvgjsPath34545"
                   d="m108.8 95.7 5.1-4.6 9 .1 7 3.8s-5.8 4.3-7.2 4.9l-8.8-.4-5.1-3.8z"
                   fill="#ffffff"
                   stroke-width="none"
                   opacity="1" />
              </g>
              <g
                 id="svga-group-eyesiriswrapper-right"
                 transform="matrix(1,0,0,1,0,0)">
                <g
                   id="svga-group-eyesiriscontrol-right"
                   transform="matrix(1,0,0,1,0,0)">
                  <g
                     id="svga-group-eyesiris-right"
                     transform="matrix(1,0,0,1,0,0)">
                    <path
                       id="SvgjsPath34608"
                       d="M121.1 89.5H117l-2.9 2.9v4.1l2.9 2.8h4.1l2.8-2.8v-4.1z"
                       fill="#3c8d8e"
                       stroke-width="none"
                       opacity="1" />
                    <path
                       id="SvgjsPath34609"
                       d="M124.2 96.5v-2c0-.7 0-1.4-.1-2v-.1l-.1-.1c-.5-.5-1-.9-1.5-1.4-.2-.2-.5-.5-.8-.7-.2-.2-.5-.4-.8-.7-.3 0-.7 0-1-.1s-.7 0-1-.1c-.7 0-1.4-.1-2.1-.1h-.1l-.1.1c-.5.5-1 .9-1.5 1.4l-.7.7-.7.7-.1.1v.1l.1 2c0 .7.1 1.4.1 2l.7.7.7.7c.5.5.9 1 1.4 1.5h.1c.7 0 1.4.1 2 .1h2.1l.1-.1 1.5-1.4.7-.7.7-.7.1-.1.3.2zm-1.2.5-.7.7-1.3 1.4h-1.9c-.7 0-1.3 0-2 .1-.5-.4-1-.9-1.4-1.4l-.7-.7-.7-.7c0-.7 0-1.3.1-2l.1-1.9.7-.7.7-.7 1.4-1.4c.6 0 1.3 0 1.9-.1.3 0 .7 0 1-.1.3 0 .7 0 1-.1l.7.8c.2.2.5.5.7.8.4.5.9.9 1.3 1.4 0 .7 0 1.3-.1 1.9v1.9l-.8.8z"
                       fill="#196e6f"
                       stroke-width="none"
                       opacity="1" />
                    <path
                       id="SvgjsPath34610"
                       d="m120.7 93.2.4 1.5-.8 1.4-1.6.4-1.4-.8-.4-1.6.9-1.4 1.5-.4z"
                       fill="#000000"
                       stroke-width="none"
                       opacity="1" />
                    <path
                       id="SvgjsPath34611"
                       d="m118.7 96.7-1.5-.9-.4-1.7.9-1.5 1.7-.4 1.5.9.4 1.7-.9 1.5-1.7.4zm-1.2-1.1 1.3.8 1.4-.4.8-1.3-.4-1.4-1.3-.8-1.4.4-.8 1.3.4 1.4z"
                       fill="#196e6f"
                       stroke-width="none"
                       opacity="1" />
                    <path
                       id="SvgjsPath34612"
                       d="m116.8 90.9.8-.4 1.1 2.4-.8.4-1.1-2.4z"
                       fill="#ffffff"
                       stroke-width="none"
                       opacity="1" />
                    <path
                       id="SvgjsPath34613"
                       d="M119.3 95.5h1v1h-1v-1z"
                       fill="#ffffff"
                       stroke-width="none"
                       opacity="1" />
                  </g>
                </g>
              </g>
              <g
                 id="svga-group-eyesfront-right">
                <path
                   id="SvgjsPath34555"
                   d="M125 80.8h-11.2l-7.9 8.4v11.9l7.9 8.4H125l7.9-8.4V89.3l-7.9-8.5zm-2.3 19.1-8.8-.4-5.1-3.8 5.1-4.6 9 .1 7 3.8s-5.8 4.2-7.2 4.9z"
                   fill="#ebaa82"
                   stroke-width="none"
                   opacity="1"
                   stroke="none" />
                <path
                   id="SvgjsPath34558"
                   d="m108.3 96.1 1.2-.6 4.7-4.1h8.8l7.2 4 1 .2-7.9-5-9.6-.1z"
                   fill="#210d34"
                   stroke-width="none"
                   opacity="1"
                   stroke="none" />
                <path
                   id="SvgjsPath34559"
                   d="m109.2 94 4-4.1 9.8-.1 8.1 3.6-8.1-3.1h-9.7z"
                   fill="#dc9164"
                   stroke-width="none"
                   opacity="1"
                   stroke="none" />
              </g>
            </g>
          </g>
          <g
             id="svga-group-facehighlight-single" />
          <g
             id="svga-group-eyebrows-left-move"
             transform="matrix(1,0,0,1,0,0)">
            <g
               id="svga-group-eyebrows-left-rotate"
               transform="matrix(1,0,0,1,0,0)">
              <g
                 id="svga-group-eyebrows-left"
                 transform="matrix(1,0,0,1,0,0)">
                <path
                   id="SvgjsPath34484"
                   d="m93.58 85.39-1.3 2.72-18.78-7.17-10.68 3.59 11.09-5.86z"
                   fill="#d6c4c4"
                   stroke-width="none"
                   opacity="1" />
              </g>
            </g>
          </g>
          <g
             id="svga-group-eyebrows-right-move"
             transform="matrix(1,0,0,1,0,0)">
            <g
               id="svga-group-eyebrows-right-rotate"
               transform="matrix(1,0,0,1,0,0)">
              <g
                 id="svga-group-eyebrows-right"
                 transform="matrix(1,0,0,1,0,0)">
                <path
                   id="SvgjsPath34485"
                   d="m106.42 85.39 1.3 2.72 18.78-7.17 10.68 3.59-11.09-5.86z"
                   fill="#d6c4c4"
                   stroke-width="none"
                   opacity="1" />
              </g>
            </g>
          </g>
          <g
             id="svga-group-beardwrap"
             transform="matrix(1,0,0,1,0,0)">
            <g
               id="svga-group-beard-single-move"
               transform="matrix(1,0,0,1,0,0)">
              <g
                 id="svga-group-beard-single"
                 transform="matrix(1,0,0,1,0,0)" />
            </g>
          </g>
          <g
             id="svga-group-mustache-single-move"
             transform="matrix(1,0,0,1,0,0)">
            <g
               id="svga-group-mustache-single"
               transform="matrix(1,0,0,1,0,0)" />
          </g>
          <g
             id="svga-group-nose-single-move"
             transform="matrix(1,0,0,1,0,0)">
            <g
               id="svga-group-nose-single"
               transform="matrix(1,0,0,1,0,0)">
              <path
                 id="SvgjsPath34658"
                 d="m100.22 120.13-3.87-2.61-3.17 1.74-2.29-3.79 2.76-4.04 2.7-10.52-1.19-5.23 2.21-4.67 2.77-1.1 2.85 1.66 1.59 4.51-1.27 4.03 1.51 4.7 1.97 6.86 2.61 3.88-2.29 3.71-3.48-1.18z"
                 fill="#ebaa82"
                 stroke-width="none"
                 opacity="1"
                 transform="translate(0 1)"
                 stroke="none" />
              <path
                 id="SvgjsPath34659"
                 d="m106.93 111.02-2.82 2.43 2.82-1.11 1.82 3.03-2.02 3.13-2.12-1.21.71-1.62-5.15 4.14-5.15-4.14.7 1.62-2.12 1.21-2.02-3.13 1.82-3.03 2.83 1.11-2.03-2.8 2.77-9.73-1.07-4.59 2.14-5.34-3.15-5.09 1.89 4.84-2.26 4.71 1.13 4.84L93 111.61l-2.73 3.96 2.83 4.64 3.33-1.71 2.93 2.42h1.62l2.92-2.42 3.34 1.71 2.83-4.64z"
                 fill="#cc7b48"
                 stroke-width="none"
                 opacity="1"
                 transform="translate(0 1)"
                 stroke="none" />
              <path
                 id="SvgjsPath34660"
                 d="m104.63 87.03-2.01 4.21 1.57 4.84-1.19 3.96 1.82 4.77-1.07-4.77 1.2-4.03-1.64-4.9z"
                 fill="#cc7b48"
                 stroke-width="none"
                 opacity="1"
                 transform="translate(0 1)"
                 stroke="none" />
              <path
                 id="SvgjsPath34661"
                 d="M101.47 114.77s2.23-4.26 2.23-4.55c0-.29-1.65-9.88-1.65-9.88l.48-5.14-.97-3.58-1.65 9.4v13.27l1.56.48z"
                 fill="#f3b792"
                 stroke-width="none"
                 opacity="1"
                 transform="translate(0 1)"
                 stroke="none" />
              <path
                 id="SvgjsPath34662"
                 d="m93.1 120.21 3.33-1.71 2.93 2.42h1.62l2.92-2.42 3.34 1.71 2.83-4.64-3.14-4.55-2.82 2.43 2.82-1.11 1.82 3.03-2.02 3.13-2.12-1.21.71-1.62-5.15 4.14-5.15-4.14.7 1.62-2.12 1.21-2.02-3.13 1.82-3.03 2.83 1.11-2.03-2.8-1.2.96-2.73 3.96z"
                 fill="#cc7b48"
                 stroke-width="none"
                 opacity="1"
                 transform="translate(0 1)"
                 stroke="none" />
            </g>
          </g>
          <g
             id="svga-group-hair-front"
             transform="matrix(1,0,0,1,0,0)">
            <path
               id="SvgjsPath34708"
               d="m90.2 59.3-.7 4.1 7.9 1.8 4.5-4.4 2.2 3.8 10.1-.4.1-2.9 2.7-1.9 2.8.8-.8 2.8 4.7 5.7 4.4-1.3.7 4.4 5.7 4.5 3.8-1.9 1.2 6.3-2.5 5.1 1.9 6.6 3.2 1.6 3.1-1.9 1.3 5.4-4.4 4.1 2.8 5.4 3.5-2.2 2.2 2.8 1.9 2.8 7-6v-7.2l6.3-1.6 5.7-8.3v-7.5l-2.9-2.6-1.2-6.3 4.1-2.8-2.9-10.2-6.9-2.5-2.9-8.6.7-4.7-5.4-7.6H149l-4.4-2.8.3-4.5-4.7-5-4.8 1.2-6.9-4.1-1.6-5.7-9.2 1.9-6 1.9-4.8-5h-4.7v3.7l-6.6.4-3.5-4.5H87l-4.1 3.5-9.5-2.2-6.6 4.1.9 3.5-5.7 2.5-3.2-3.8-5.3 3.5-1.3 5.7-7.6 3.5-3.8 8.2 2.9 2.9-3.8 5.7-2.9-1.9-2.5 8.8 1.9 4.1-1.6 5.1-4.1 1.6-1.9 8.5 4.1 1 .6 5.4-2.8 4.4.2 11.4 7.9-.8 1 4.1-3.8 1.9 2.8 7.6 4.5 4.1 4.7-.9-.9-5.1 3.4 2.2 1.9 5.1 7.6-6.1-.3-6 4.7-3.2-3.1-7.2-2-3.5 1.8-7.4 3.1-1.6 4.9-5.3-2.8-1.7 3.3-5.1 2.8 1 5-3.5-1.5-3.8 4.8-2.7 2 2.5 2.2-3.5z"
               fill="#d6c4c4"
               stroke-width="none"
               opacity="1"
               stroke="none" />
            <path
               id="SvgjsPath34709"
               d="m93.8 23.6-5.1-5.1-9.9 2.7 1.3 4-5.4 2.4-5.1 2.9-8 3.8 3.2 7.2-8.8 7.6-1.3 6.7 6.2 8 4.3-5.9 4-3.5 4.8 3.2 6.2-1.9 1.6-5.6 9.1 2.2 3.8 4 5.6-.8 3.2-9.1 6.7-3.8 6.2 5.6 3.5 8.6 7.8 1.3 6.2-3 4.3-2.4 4.3 9.1-3.5 5.6 4.8 5.9 6.2 6.2-4.3 4.3 3.5 5.9 3.8 4 5.6-5.3h4.3l3.2-5.4-1.9-7.8-3.8-.3.3-9.1 4-1.6-1.6-6.2-6.4-3.2-1.3-6.2 1.9-8-5.4-3-7 .3-4 3.2-5.6-3 1.6-5.1 4.6-1.1-.5-5.4-8-2.4-5.4-1.1-2.9-4-2.1-2.1-2.7 4.3-2.4 3.5-8.8.8-1.9-6.4-5.1-.5-4.7 2.9-3.2 2.1zM45.9 56.3l5.6 9.1 4 3.8-6.4 4.6 3.8 5.4 2.7 4.5-6 1.3 2.7 8.6-2.7 3.8-5.4-.8.8-2.7h3.2l-.8-5.1-3.2-1.6h-3.5l-1.1-5.9 3.5-2.7 3.8 3.8 2.2-1.1.8-2.7-4-1.9-2.9-1.1-1.2-4.6 3.5-1.6 3.2-4.3-4-1.3-2.1-2.2-.3-3.2 3.8-2.1z"
               fill="#ded6d6"
               stroke-width="none"
               opacity="1"
               stroke="none" />
            <path
               id="SvgjsPath34710"
               d="m89.3 43.2-5.1-5.9 2.4-5.9 5.4-2.7 5.6 7.2 5.1-2.4-.3-5.1h4l.5 6.2-4 3.5-7.5 1.3-4.8-4.6-2.4 1.3 4 4.6-1.9 2.4h-1zm39.6 5.1-8.3-4.8 1.6-7 6.2-3.2 4.6 5.4-2.2 2.2-3.7-3-2.1 4.8 5.1 3.5-1.2 2.1zM149 73.4l-3.8-5.4 4-6.4 4.8.8-2.1 1.6-3 4v5.4zm6.2 6.5-1.9-5.9 2.1-3.5 2.4 4.6-2.6 4.8z"
               fill="#d6c4c4"
               stroke-width="none"
               opacity="1"
               stroke="none" />
          </g>
          <g
             id="svga-group-glasses-single-move"
             transform="matrix(1,0,0,1,0,0)">
            <g
               id="svga-group-glasses-single"
               transform="matrix(1,0,0,1,0,0)" />
          </g>
        </g>
      </g>
    </g>
    <rect
       id="svga-credit-rect"
       width="200"
       height="15"
       x="0"
       y="185"
       fill="#ecf0f1"
       opacity="0.5"
       style="display: none;" />
    <text
       id="svga-credit-text"
       font-family="Avenir Next, Roboto, Helvetica, Arial, sans-serif"
       font-size="10px"
       text-anchor="start"
       font-weight="400"
       size="10px"
       anchor="start"
       weight="400"
       fill="#333333"
       x="33.298973083496094"
       y="182.60824728012085"
       style="display: none;"><tspan
         id="SvgjsTspan34023"
         dy="13"
         x="33.298973083496094">Created on AvatarMaker.com</tspan></text>
  </g>
</svg>
